<mxfile host="app.diagrams.net" agent="Mozilla/5.0 (Windows NT 10.0; Win64; x64) AppleWebKit/537.36 (KHTML, like Gecko) Chrome/132.0.0.0 Safari/537.36" version="26.0.10">
  <diagram id="C5RBs43oDa-KdzZeNtuy" name="Page-1">
    <mxGraphModel dx="1591" dy="517" grid="1" gridSize="10" guides="1" tooltips="1" connect="1" arrows="1" fold="1" page="1" pageScale="1" pageWidth="827" pageHeight="1169" math="0" shadow="0">
      <root>
        <mxCell id="WIyWlLk6GJQsqaUBKTNV-0" />
        <mxCell id="WIyWlLk6GJQsqaUBKTNV-1" parent="WIyWlLk6GJQsqaUBKTNV-0" />
        <mxCell id="I3l3nGif_tC_h9JZjXgp-0" value="" style="rounded=1;whiteSpace=wrap;html=1;direction=south;" vertex="1" parent="WIyWlLk6GJQsqaUBKTNV-1">
          <mxGeometry x="-40" y="380" width="60" height="120" as="geometry" />
        </mxCell>
        <mxCell id="I3l3nGif_tC_h9JZjXgp-2" value="" style="rounded=1;whiteSpace=wrap;html=1;direction=south;" vertex="1" parent="WIyWlLk6GJQsqaUBKTNV-1">
          <mxGeometry x="-40" y="210" width="60" height="120" as="geometry" />
        </mxCell>
        <mxCell id="I3l3nGif_tC_h9JZjXgp-3" value="" style="rounded=1;whiteSpace=wrap;html=1;direction=south;" vertex="1" parent="WIyWlLk6GJQsqaUBKTNV-1">
          <mxGeometry x="-40" y="30" width="60" height="120" as="geometry" />
        </mxCell>
        <mxCell id="I3l3nGif_tC_h9JZjXgp-5" value="shipping the order" style="text;strokeColor=none;fillColor=none;html=1;align=center;verticalAlign=middle;whiteSpace=wrap;rounded=0;fontSize=16;rotation=270;" vertex="1" parent="WIyWlLk6GJQsqaUBKTNV-1">
          <mxGeometry x="-65.62" y="414.38" width="110" height="56.25" as="geometry" />
        </mxCell>
        <mxCell id="I3l3nGif_tC_h9JZjXgp-6" value="placing the order" style="text;strokeColor=none;fillColor=none;html=1;align=center;verticalAlign=middle;whiteSpace=wrap;rounded=0;fontSize=16;rotation=270;" vertex="1" parent="WIyWlLk6GJQsqaUBKTNV-1">
          <mxGeometry x="-69.69" y="251.57" width="119.38" height="38.43" as="geometry" />
        </mxCell>
        <mxCell id="I3l3nGif_tC_h9JZjXgp-8" value="Ecommerce site" style="text;strokeColor=none;fillColor=none;html=1;align=center;verticalAlign=middle;whiteSpace=wrap;rounded=0;fontSize=16;rotation=270;" vertex="1" parent="WIyWlLk6GJQsqaUBKTNV-1">
          <mxGeometry x="-32.5" y="77.5" width="50" height="35" as="geometry" />
        </mxCell>
        <mxCell id="I3l3nGif_tC_h9JZjXgp-13" value="" style="rounded=1;whiteSpace=wrap;html=1;" vertex="1" parent="WIyWlLk6GJQsqaUBKTNV-1">
          <mxGeometry x="110" y="170" width="90" height="40" as="geometry" />
        </mxCell>
        <mxCell id="I3l3nGif_tC_h9JZjXgp-14" value="start" style="text;strokeColor=none;fillColor=none;html=1;align=center;verticalAlign=middle;whiteSpace=wrap;rounded=0;fontSize=16;" vertex="1" parent="WIyWlLk6GJQsqaUBKTNV-1">
          <mxGeometry x="125" y="175" width="60" height="30" as="geometry" />
        </mxCell>
        <mxCell id="I3l3nGif_tC_h9JZjXgp-17" value="" style="edgeStyle=none;orthogonalLoop=1;jettySize=auto;html=1;rounded=0;fontSize=12;startSize=8;endSize=8;curved=1;" edge="1" parent="WIyWlLk6GJQsqaUBKTNV-1">
          <mxGeometry width="140" relative="1" as="geometry">
            <mxPoint x="150" y="170" as="sourcePoint" />
            <mxPoint x="150" y="110" as="targetPoint" />
            <Array as="points" />
          </mxGeometry>
        </mxCell>
        <mxCell id="I3l3nGif_tC_h9JZjXgp-19" value="" style="rounded=0;whiteSpace=wrap;html=1;" vertex="1" parent="WIyWlLk6GJQsqaUBKTNV-1">
          <mxGeometry x="80" y="50" width="160" height="50" as="geometry" />
        </mxCell>
        <mxCell id="I3l3nGif_tC_h9JZjXgp-20" value="" style="rounded=0;whiteSpace=wrap;html=1;" vertex="1" parent="WIyWlLk6GJQsqaUBKTNV-1">
          <mxGeometry x="330" y="50" width="150" height="50" as="geometry" />
        </mxCell>
        <mxCell id="I3l3nGif_tC_h9JZjXgp-21" value="" style="edgeStyle=none;orthogonalLoop=1;jettySize=auto;html=1;rounded=0;fontSize=12;startSize=8;endSize=8;curved=1;" edge="1" parent="WIyWlLk6GJQsqaUBKTNV-1">
          <mxGeometry width="140" relative="1" as="geometry">
            <mxPoint x="250" y="74.5" as="sourcePoint" />
            <mxPoint x="320" y="74.5" as="targetPoint" />
            <Array as="points" />
          </mxGeometry>
        </mxCell>
        <mxCell id="I3l3nGif_tC_h9JZjXgp-25" style="edgeStyle=none;curved=1;rounded=0;orthogonalLoop=1;jettySize=auto;html=1;exitX=1;exitY=1;exitDx=0;exitDy=0;fontSize=12;startSize=8;endSize=8;" edge="1" parent="WIyWlLk6GJQsqaUBKTNV-1">
          <mxGeometry relative="1" as="geometry">
            <mxPoint x="702.5" y="105" as="sourcePoint" />
            <mxPoint x="702.5" y="105" as="targetPoint" />
          </mxGeometry>
        </mxCell>
        <mxCell id="I3l3nGif_tC_h9JZjXgp-28" value="Search the product" style="text;strokeColor=none;fillColor=none;html=1;align=center;verticalAlign=middle;whiteSpace=wrap;rounded=0;fontSize=16;" vertex="1" parent="WIyWlLk6GJQsqaUBKTNV-1">
          <mxGeometry x="85" y="60" width="150" height="30" as="geometry" />
        </mxCell>
        <mxCell id="I3l3nGif_tC_h9JZjXgp-29" value="Slelect the product" style="text;strokeColor=none;fillColor=none;html=1;align=center;verticalAlign=middle;whiteSpace=wrap;rounded=0;fontSize=16;" vertex="1" parent="WIyWlLk6GJQsqaUBKTNV-1">
          <mxGeometry x="335" y="60" width="140" height="30" as="geometry" />
        </mxCell>
        <mxCell id="I3l3nGif_tC_h9JZjXgp-50" style="edgeStyle=none;curved=1;rounded=0;orthogonalLoop=1;jettySize=auto;html=1;exitX=1;exitY=0.5;exitDx=0;exitDy=0;fontSize=12;startSize=8;endSize=8;" edge="1" parent="WIyWlLk6GJQsqaUBKTNV-1" source="I3l3nGif_tC_h9JZjXgp-42">
          <mxGeometry relative="1" as="geometry">
            <mxPoint x="680" y="70" as="targetPoint" />
          </mxGeometry>
        </mxCell>
        <mxCell id="I3l3nGif_tC_h9JZjXgp-42" value="" style="rhombus;whiteSpace=wrap;html=1;" vertex="1" parent="WIyWlLk6GJQsqaUBKTNV-1">
          <mxGeometry x="534" width="170" height="150" as="geometry" />
        </mxCell>
        <mxCell id="I3l3nGif_tC_h9JZjXgp-43" value="Are you going to buy this product immediately?" style="text;strokeColor=none;fillColor=none;html=1;align=center;verticalAlign=middle;whiteSpace=wrap;rounded=0;fontSize=16;" vertex="1" parent="WIyWlLk6GJQsqaUBKTNV-1">
          <mxGeometry x="606.5" y="27.5" width="25" height="85" as="geometry" />
        </mxCell>
        <mxCell id="I3l3nGif_tC_h9JZjXgp-55" style="edgeStyle=none;curved=1;rounded=0;orthogonalLoop=1;jettySize=auto;html=1;exitX=1;exitY=0.75;exitDx=0;exitDy=0;fontSize=12;startSize=8;endSize=8;" edge="1" parent="WIyWlLk6GJQsqaUBKTNV-1" source="I3l3nGif_tC_h9JZjXgp-43" target="I3l3nGif_tC_h9JZjXgp-43">
          <mxGeometry relative="1" as="geometry" />
        </mxCell>
        <mxCell id="I3l3nGif_tC_h9JZjXgp-59" value="" style="edgeStyle=none;orthogonalLoop=1;jettySize=auto;html=1;rounded=0;fontSize=12;startSize=8;endSize=8;curved=1;" edge="1" parent="WIyWlLk6GJQsqaUBKTNV-1">
          <mxGeometry width="140" relative="1" as="geometry">
            <mxPoint x="484" y="77.5" as="sourcePoint" />
            <mxPoint x="534" y="77.5" as="targetPoint" />
            <Array as="points">
              <mxPoint x="514" y="77.5" />
            </Array>
          </mxGeometry>
        </mxCell>
        <mxCell id="I3l3nGif_tC_h9JZjXgp-74" value="NO" style="edgeLabel;html=1;align=center;verticalAlign=middle;resizable=0;points=[];fontSize=12;" vertex="1" connectable="0" parent="I3l3nGif_tC_h9JZjXgp-59">
          <mxGeometry x="-0.176" y="4" relative="1" as="geometry">
            <mxPoint as="offset" />
          </mxGeometry>
        </mxCell>
        <mxCell id="I3l3nGif_tC_h9JZjXgp-61" value="" style="edgeStyle=none;orthogonalLoop=1;jettySize=auto;html=1;rounded=0;fontSize=12;startSize=8;endSize=8;curved=1;" edge="1" parent="WIyWlLk6GJQsqaUBKTNV-1">
          <mxGeometry width="140" relative="1" as="geometry">
            <mxPoint x="704" y="74.5" as="sourcePoint" />
            <mxPoint x="744" y="74.5" as="targetPoint" />
            <Array as="points" />
          </mxGeometry>
        </mxCell>
        <mxCell id="I3l3nGif_tC_h9JZjXgp-62" value="" style="rounded=0;whiteSpace=wrap;html=1;" vertex="1" parent="WIyWlLk6GJQsqaUBKTNV-1">
          <mxGeometry x="750" y="50" width="160" height="50" as="geometry" />
        </mxCell>
        <mxCell id="I3l3nGif_tC_h9JZjXgp-63" value="Add to shopping cart" style="text;strokeColor=none;fillColor=none;html=1;align=center;verticalAlign=middle;whiteSpace=wrap;rounded=0;fontSize=16;" vertex="1" parent="WIyWlLk6GJQsqaUBKTNV-1">
          <mxGeometry x="755" y="60" width="150" height="30" as="geometry" />
        </mxCell>
        <mxCell id="I3l3nGif_tC_h9JZjXgp-64" value="" style="edgeStyle=none;orthogonalLoop=1;jettySize=auto;html=1;rounded=0;fontSize=12;startSize=8;endSize=8;curved=1;" edge="1" parent="WIyWlLk6GJQsqaUBKTNV-1">
          <mxGeometry width="140" relative="1" as="geometry">
            <mxPoint x="910" y="74.5" as="sourcePoint" />
            <mxPoint x="980" y="74.5" as="targetPoint" />
            <Array as="points">
              <mxPoint x="940" y="74.5" />
            </Array>
          </mxGeometry>
        </mxCell>
        <mxCell id="I3l3nGif_tC_h9JZjXgp-67" value="" style="ellipse;whiteSpace=wrap;html=1;" vertex="1" parent="WIyWlLk6GJQsqaUBKTNV-1">
          <mxGeometry x="980" y="55" width="90" height="40" as="geometry" />
        </mxCell>
        <mxCell id="I3l3nGif_tC_h9JZjXgp-69" value="END" style="text;strokeColor=none;fillColor=none;html=1;align=center;verticalAlign=middle;whiteSpace=wrap;rounded=0;fontSize=16;" vertex="1" parent="WIyWlLk6GJQsqaUBKTNV-1">
          <mxGeometry x="995" y="60" width="60" height="30" as="geometry" />
        </mxCell>
        <mxCell id="I3l3nGif_tC_h9JZjXgp-70" value="" style="edgeStyle=segmentEdgeStyle;endArrow=classic;html=1;curved=0;rounded=0;endSize=8;startSize=8;sourcePerimeterSpacing=0;targetPerimeterSpacing=0;fontSize=12;" edge="1" parent="WIyWlLk6GJQsqaUBKTNV-1">
          <mxGeometry width="140" relative="1" as="geometry">
            <mxPoint x="649.3699999999999" y="123" as="sourcePoint" />
            <mxPoint x="631.4972727272725" y="170" as="targetPoint" />
            <Array as="points">
              <mxPoint x="719.77" y="123" />
              <mxPoint x="719.77" y="170" />
            </Array>
          </mxGeometry>
        </mxCell>
        <mxCell id="I3l3nGif_tC_h9JZjXgp-72" value="YES" style="edgeLabel;html=1;align=center;verticalAlign=middle;resizable=0;points=[];fontSize=12;" vertex="1" connectable="0" parent="I3l3nGif_tC_h9JZjXgp-70">
          <mxGeometry x="-0.1442" y="-1" relative="1" as="geometry">
            <mxPoint as="offset" />
          </mxGeometry>
        </mxCell>
        <mxCell id="I3l3nGif_tC_h9JZjXgp-71" value="" style="rhombus;whiteSpace=wrap;html=1;" vertex="1" parent="WIyWlLk6GJQsqaUBKTNV-1">
          <mxGeometry x="549" y="160" width="140" height="110" as="geometry" />
        </mxCell>
        <mxCell id="I3l3nGif_tC_h9JZjXgp-75" value="" style="edgeStyle=none;orthogonalLoop=1;jettySize=auto;html=1;rounded=0;fontSize=12;startSize=8;endSize=8;curved=1;" edge="1" parent="WIyWlLk6GJQsqaUBKTNV-1">
          <mxGeometry width="140" relative="1" as="geometry">
            <mxPoint x="619.5" y="280" as="sourcePoint" />
            <mxPoint x="620" y="280" as="targetPoint" />
            <Array as="points" />
          </mxGeometry>
        </mxCell>
        <mxCell id="I3l3nGif_tC_h9JZjXgp-76" value="" style="edgeStyle=none;orthogonalLoop=1;jettySize=auto;html=1;rounded=0;fontSize=12;startSize=8;endSize=8;curved=1;" edge="1" parent="WIyWlLk6GJQsqaUBKTNV-1">
          <mxGeometry width="140" relative="1" as="geometry">
            <mxPoint x="618.5" y="270" as="sourcePoint" />
            <mxPoint x="618.5" y="300" as="targetPoint" />
            <Array as="points" />
          </mxGeometry>
        </mxCell>
        <mxCell id="I3l3nGif_tC_h9JZjXgp-94" value="YES" style="edgeLabel;html=1;align=center;verticalAlign=middle;resizable=0;points=[];fontSize=12;" vertex="1" connectable="0" parent="I3l3nGif_tC_h9JZjXgp-76">
          <mxGeometry x="-0.2933" y="2" relative="1" as="geometry">
            <mxPoint as="offset" />
          </mxGeometry>
        </mxCell>
        <mxCell id="I3l3nGif_tC_h9JZjXgp-77" value="" style="rounded=0;whiteSpace=wrap;html=1;" vertex="1" parent="WIyWlLk6GJQsqaUBKTNV-1">
          <mxGeometry x="549" y="300" width="140" height="40" as="geometry" />
        </mxCell>
        <mxCell id="I3l3nGif_tC_h9JZjXgp-78" value="" style="edgeStyle=none;orthogonalLoop=1;jettySize=auto;html=1;rounded=0;fontSize=12;startSize=8;endSize=8;curved=1;" edge="1" parent="WIyWlLk6GJQsqaUBKTNV-1">
          <mxGeometry width="140" relative="1" as="geometry">
            <mxPoint x="618.5" y="340" as="sourcePoint" />
            <mxPoint x="618.5" y="370" as="targetPoint" />
            <Array as="points" />
          </mxGeometry>
        </mxCell>
        <mxCell id="I3l3nGif_tC_h9JZjXgp-79" value="" style="rounded=0;whiteSpace=wrap;html=1;" vertex="1" parent="WIyWlLk6GJQsqaUBKTNV-1">
          <mxGeometry x="544" y="374.38" width="150" height="40" as="geometry" />
        </mxCell>
        <mxCell id="I3l3nGif_tC_h9JZjXgp-80" value="" style="edgeStyle=none;orthogonalLoop=1;jettySize=auto;html=1;rounded=0;fontSize=12;startSize=8;endSize=8;curved=1;" edge="1" parent="WIyWlLk6GJQsqaUBKTNV-1">
          <mxGeometry width="140" relative="1" as="geometry">
            <mxPoint x="618.5" y="414.38" as="sourcePoint" />
            <mxPoint x="618.5" y="444.38" as="targetPoint" />
            <Array as="points" />
          </mxGeometry>
        </mxCell>
        <mxCell id="I3l3nGif_tC_h9JZjXgp-81" value="" style="rounded=0;whiteSpace=wrap;html=1;" vertex="1" parent="WIyWlLk6GJQsqaUBKTNV-1">
          <mxGeometry x="544" y="450" width="150" height="40" as="geometry" />
        </mxCell>
        <mxCell id="I3l3nGif_tC_h9JZjXgp-82" value="" style="edgeStyle=none;orthogonalLoop=1;jettySize=auto;html=1;rounded=0;fontSize=12;startSize=8;endSize=8;curved=1;" edge="1" parent="WIyWlLk6GJQsqaUBKTNV-1">
          <mxGeometry width="140" relative="1" as="geometry">
            <mxPoint x="619" y="500" as="sourcePoint" />
            <mxPoint x="618.5" y="520" as="targetPoint" />
            <Array as="points">
              <mxPoint x="618.5" y="480" />
            </Array>
          </mxGeometry>
        </mxCell>
        <mxCell id="I3l3nGif_tC_h9JZjXgp-83" value="" style="rounded=0;whiteSpace=wrap;html=1;" vertex="1" parent="WIyWlLk6GJQsqaUBKTNV-1">
          <mxGeometry x="544" y="520" width="156" height="40" as="geometry" />
        </mxCell>
        <mxCell id="I3l3nGif_tC_h9JZjXgp-85" style="edgeStyle=none;curved=1;rounded=0;orthogonalLoop=1;jettySize=auto;html=1;exitX=1;exitY=0.5;exitDx=0;exitDy=0;fontSize=12;startSize=8;endSize=8;" edge="1" parent="WIyWlLk6GJQsqaUBKTNV-1" source="I3l3nGif_tC_h9JZjXgp-83" target="I3l3nGif_tC_h9JZjXgp-83">
          <mxGeometry relative="1" as="geometry" />
        </mxCell>
        <mxCell id="I3l3nGif_tC_h9JZjXgp-86" value="" style="edgeStyle=none;orthogonalLoop=1;jettySize=auto;html=1;rounded=0;fontSize=12;startSize=8;endSize=8;curved=1;" edge="1" parent="WIyWlLk6GJQsqaUBKTNV-1">
          <mxGeometry width="140" relative="1" as="geometry">
            <mxPoint x="544" y="539.5" as="sourcePoint" />
            <mxPoint x="400" y="540" as="targetPoint" />
            <Array as="points" />
          </mxGeometry>
        </mxCell>
        <mxCell id="I3l3nGif_tC_h9JZjXgp-87" value="" style="ellipse;whiteSpace=wrap;html=1;" vertex="1" parent="WIyWlLk6GJQsqaUBKTNV-1">
          <mxGeometry x="300" y="520" width="96" height="40" as="geometry" />
        </mxCell>
        <mxCell id="I3l3nGif_tC_h9JZjXgp-88" value="END" style="text;strokeColor=none;fillColor=none;html=1;align=center;verticalAlign=middle;whiteSpace=wrap;rounded=0;fontSize=16;" vertex="1" parent="WIyWlLk6GJQsqaUBKTNV-1">
          <mxGeometry x="318" y="525" width="60" height="30" as="geometry" />
        </mxCell>
        <mxCell id="I3l3nGif_tC_h9JZjXgp-89" value="Collect payment" style="text;strokeColor=none;fillColor=none;html=1;align=center;verticalAlign=middle;whiteSpace=wrap;rounded=0;fontSize=16;" vertex="1" parent="WIyWlLk6GJQsqaUBKTNV-1">
          <mxGeometry x="554.75" y="525" width="128.5" height="30" as="geometry" />
        </mxCell>
        <mxCell id="I3l3nGif_tC_h9JZjXgp-90" value="Deliver the product" style="text;strokeColor=none;fillColor=none;html=1;align=center;verticalAlign=middle;whiteSpace=wrap;rounded=0;fontSize=16;" vertex="1" parent="WIyWlLk6GJQsqaUBKTNV-1">
          <mxGeometry x="560.75" y="455" width="116.5" height="30" as="geometry" />
        </mxCell>
        <mxCell id="I3l3nGif_tC_h9JZjXgp-91" value="Process in warehouse" style="text;strokeColor=none;fillColor=none;html=1;align=center;verticalAlign=middle;whiteSpace=wrap;rounded=0;fontSize=16;" vertex="1" parent="WIyWlLk6GJQsqaUBKTNV-1">
          <mxGeometry x="560.75" y="380" width="119.25" height="30" as="geometry" />
        </mxCell>
        <mxCell id="I3l3nGif_tC_h9JZjXgp-92" value="Make a purchase" style="text;strokeColor=none;fillColor=none;html=1;align=center;verticalAlign=middle;whiteSpace=wrap;rounded=0;fontSize=16;" vertex="1" parent="WIyWlLk6GJQsqaUBKTNV-1">
          <mxGeometry x="560" y="305" width="120" height="30" as="geometry" />
        </mxCell>
        <mxCell id="I3l3nGif_tC_h9JZjXgp-95" value="" style="edgeStyle=none;orthogonalLoop=1;jettySize=auto;html=1;rounded=0;fontSize=12;startSize=8;endSize=8;curved=1;" edge="1" parent="WIyWlLk6GJQsqaUBKTNV-1">
          <mxGeometry width="140" relative="1" as="geometry">
            <mxPoint x="689" y="214.5" as="sourcePoint" />
            <mxPoint x="759" y="214.5" as="targetPoint" />
            <Array as="points" />
          </mxGeometry>
        </mxCell>
      </root>
    </mxGraphModel>
  </diagram>
</mxfile>
